<?xml version="1.0" encoding="utf-8"?>
<!-- Generator: Adobe Illustrator 16.0.0, SVG Export Plug-In . SVG Version: 6.00 Build 0)  -->
<!DOCTYPE svg PUBLIC "-//W3C//DTD SVG 1.1//EN" "http://www.w3.org/Graphics/SVG/1.1/DTD/svg11.dtd">
<svg version="1.1" id="Layer_1" xmlns="http://www.w3.org/2000/svg" xmlns:xlink="http://www.w3.org/1999/xlink" x="0px" y="0px"
	 width="334px" height="171.331px" viewBox="0 0 334 171.331" enable-background="new 0 0 334 171.331" xml:space="preserve">
<g>
	<defs>
		<rect id="SVGID_1_" x="-253.667" y="-210.609" width="841.89" height="595.276"/>
	</defs>
	<clipPath id="SVGID_2_">
		<use xlink:href="#SVGID_1_"  overflow="visible"/>
	</clipPath>
	<path clip-path="url(#SVGID_2_)" fill="#332A15" d="M96.511,47.504H74.086c0-9.928-6.82-18.498-21.599-18.498
		c-12.735,0-21.403,5.591-21.403,14.361c0,7.943,6.849,10.756,24.39,14.396c27.303,5.461,44.512,12.245,44.512,35.742
		c0,22.173-18.543,36.336-47.501,36.336c-22.504,0-46.426-12.673-46.426-40.307h22.343c0,13.569,11.517,20.777,24.083,20.777
		c13.882,0,24.821-5.224,24.821-16.144c0-7.282-5.12-11.749-26.3-15.886C29.825,74.145,8.86,67.857,8.86,43.202
		c0-19.692,16.821-33.661,43.627-33.661C82.769,9.541,96.511,29.302,96.511,47.504"/>
	<path clip-path="url(#SVGID_2_)" fill="#332A15" d="M189.023,127.591h-21.85V77.769c0-4.966-1.489-16.884-15.89-16.884
		c-9.766,0-16.552,7.283-16.552,16.884v49.822h-21.85V42.346h20.856v8.277c5.463-6.456,12.911-10.428,22.015-10.428
		c20.029,0,33.271,15.063,33.271,37.574V127.591z"/>
	<path clip-path="url(#SVGID_2_)" fill="#332A15" d="M251.465,129.413c-9.768,0-18.54-3.808-24.995-10.097l-0.004,45.2h-22.015
		l0.004-122.169h21.021v8.938c6.621-6.786,15.725-10.924,25.988-10.924c22.345,0,40.552,19.2,40.552,44.36
		C292.017,110.046,273.81,129.413,251.465,129.413 M248.319,60.72c-12.083,0-21.849,10.759-21.849,24.001
		c0,13.408,9.766,24.332,21.849,24.332c12.084,0,21.85-10.428,21.85-24.332C270.168,70.982,260.403,60.72,248.319,60.72"/>
	<path clip-path="url(#SVGID_2_)" fill="#332A15" d="M296.733,20.978h10.297c2.903,0,5.181,0.858,6.666,2.31
		c1.221,1.254,1.913,2.97,1.913,4.983v0.066c0,3.795-2.276,6.072-5.511,6.996l6.237,8.745h-4.785l-5.676-8.052h-0.066h-5.016v8.052
		h-4.06V20.978z M306.732,32.429c2.904,0,4.752-1.518,4.752-3.861v-0.066c0-2.475-1.781-3.828-4.784-3.828h-5.907v7.755H306.732z"/>
	<path clip-path="url(#SVGID_2_)" fill="#332A15" d="M305.337,56.018c-12.771,0-23.16-10.391-23.16-23.16
		c0-12.77,10.389-23.16,23.16-23.16s23.16,10.39,23.16,23.16C328.498,45.627,318.109,56.018,305.337,56.018 M305.337,14.016
		c-10.39,0-18.842,8.453-18.842,18.842S294.948,51.7,305.337,51.7s18.842-8.453,18.842-18.842S315.727,14.016,305.337,14.016"/>
</g>
</svg>
